# xmcd
#
# Track frame offsets: 
#        150
#        20792
#        33172
#        50032
#        66445
#        87885
#        99330
#        117520
#        131023
#        142373
#        155198
#        176832
#        187382
#        200757
#        213889
#        226282
#        242194
#        251869
#        265627
#        281102
#        296947
#        309195
#        317274
#
# Disc length: 4414 seconds
#
# Revision: 0
# Processed by: cddbd v1.5.1PL0 Copyright (c) Steve Scherf et al.
# Submitted via: ExactAudioCopy v0.95a5
#
DISCID=72113c17
DTITLE=The Pogues - The Best Of The Pogues
DYEAR=1999
DGENRE=Folk/Rock
TTITLE0=Faitytale Of New York
TTITLE1=Saly McLannane
TTITLE2=Dirty Old Town
TTITLE3=The Irish Rover
TTITLE4=A Rainy Night In Soho
TTITLE5=Streams Of Whiskey
TTITLE6=Rain Street
TTITLE7=Misty Morning, Albert Bridge
TTITLE8=White City
TTITLE9=The Broad Majestic Shannon
TTITLE10=The Body Of An American
TTITLE11=If I Should Fall From Grace With God
TTITLE12=The Sick Bed Of Cuchulain
TTITLE13=Boys From The County Hell
TTITLE14=Young Ned Of The Hill
TTITLE15=Dark Streets Of London
TTITLE16=Repeal Of The Licensing Laws
TTITLE17=The Wake Of The Medusa
TTITLE18=Turkish Song Of The Damned
TTITLE19=As I Walked Down by The Riverside
TTITLE20=The Sunnyside Of The Street
TTITLE21=Instrumental
TTITLE22=Hell's Ditch
EXTD=
EXTT0=
EXTT1=
EXTT2=
EXTT3=
EXTT4=
EXTT5=
EXTT6=
EXTT7=
EXTT8=
EXTT9=
EXTT10=
EXTT11=
EXTT12=
EXTT13=
EXTT14=
EXTT15=
EXTT16=
EXTT17=
EXTT18=
EXTT19=
EXTT20=
EXTT21=
EXTT22=
PLAYORDER=
